<?xml version="1.0" encoding="UTF-8"?>
<svg xmlns="http://www.w3.org/2000/svg" xmlns:xlink="http://www.w3.org/1999/xlink" width="32px" height="32px" viewBox="0 0 32 32" version="1.1">
<g id="surface1">
<path style=" stroke:none;fill-rule:nonzero;fill:rgb(0%,0%,0%);fill-opacity:1;" d="M 13.875 0.207031 C 9.667969 1.019531 6.304688 4.417969 5.519531 8.636719 C 5.042969 11.21875 5.488281 13.773438 6.738281 15.953125 C 8.429688 18.90625 9.332031 21.898438 9.332031 24.84375 L 9.332031 32 L 22.667969 32 L 22.667969 24.839844 C 22.667969 21.722656 23.453125 18.796875 24.984375 16.410156 C 26.078125 14.707031 26.667969 12.730469 26.667969 10.664062 C 26.667969 3.96875 20.585938 -1.097656 13.875 0.207031 Z M 20 29.332031 L 12 29.332031 L 12 26.667969 L 20 26.667969 Z M 16 14.664062 C 15.261719 14.664062 14.667969 14.070312 14.667969 13.332031 C 14.667969 12.59375 15.261719 12 16 12 C 16.738281 12 17.332031 12.59375 17.332031 13.332031 C 17.332031 14.070312 16.738281 14.664062 16 14.664062 Z M 22.742188 14.972656 C 21.0625 17.585938 20.148438 20.703125 20.015625 24 L 17.332031 24 L 17.332031 17.105469 C 18.886719 16.554688 20 15.074219 20 13.332031 C 20 11.121094 18.210938 9.332031 16 9.332031 C 13.789062 9.332031 12 11.121094 12 13.332031 C 12 15.074219 13.113281 16.554688 14.667969 17.105469 L 14.667969 24 L 11.980469 24 C 11.824219 20.835938 10.804688 17.6875 9.050781 14.628906 C 8.113281 12.992188 7.78125 11.078125 8.144531 9.121094 C 8.726562 5.984375 11.253906 3.429688 14.382812 2.824219 C 19.441406 1.839844 24 5.640625 24 10.664062 C 24 12.214844 23.558594 13.695312 22.742188 14.972656 Z M 22.742188 14.972656 "/>
</g>
</svg>
