<?xml version="1.0" encoding="UTF-8"?>
<svg xmlns="http://www.w3.org/2000/svg" xmlns:xlink="http://www.w3.org/1999/xlink" width="32px" height="32px" viewBox="0 0 32 32" version="1.1">
<g id="surface1">
<path style=" stroke:none;fill-rule:evenodd;fill:rgb(0%,0%,0%);fill-opacity:1;" d="M 0.855469 14.597656 L 5.277344 14.597656 L 5.277344 9.675781 C 5.277344 7.019531 6.515625 4.609375 8.503906 2.859375 C 10.496094 1.109375 13.246094 0.0234375 16.269531 0.0234375 C 19.292969 0.0234375 22.039062 1.109375 24.035156 2.859375 C 26.027344 4.609375 27.265625 7.019531 27.265625 9.675781 L 27.265625 14.59375 L 31.148438 14.59375 C 31.617188 14.59375 32.003906 14.929688 32.003906 15.34375 L 32.003906 31.222656 C 32.003906 31.636719 31.617188 31.972656 31.148438 31.972656 L 0.855469 31.972656 C 0.386719 31.972656 0 31.636719 0 31.222656 L 0 15.347656 C 0 14.933594 0.386719 14.597656 0.855469 14.597656 Z M 7.636719 22.332031 C 8.933594 22.332031 9.984375 23.253906 9.984375 24.390625 C 9.984375 25.523438 8.933594 26.449219 7.636719 26.449219 C 6.34375 26.449219 5.292969 25.527344 5.292969 24.390625 C 5.292969 23.253906 6.339844 22.332031 7.636719 22.332031 Z M 24.363281 22.332031 C 25.660156 22.332031 26.707031 23.253906 26.707031 24.390625 C 26.707031 25.523438 25.660156 26.449219 24.363281 26.449219 C 23.070312 26.449219 22.019531 25.527344 22.019531 24.390625 C 22.019531 23.253906 23.070312 22.332031 24.363281 22.332031 Z M 16 22.332031 C 17.296875 22.332031 18.34375 23.253906 18.34375 24.390625 C 18.34375 25.523438 17.296875 26.449219 16 26.449219 C 14.707031 26.449219 13.65625 25.527344 13.65625 24.390625 C 13.65625 23.253906 14.703125 22.332031 16 22.332031 Z M 4.617188 20.816406 L 27.378906 20.816406 C 28.59375 20.816406 29.585938 21.6875 29.585938 22.75 L 29.585938 26.027344 C 29.585938 27.089844 28.59375 27.960938 27.378906 27.960938 L 4.617188 27.960938 C 3.40625 27.960938 2.414062 27.089844 2.414062 26.027344 L 2.414062 22.75 C 2.414062 21.6875 3.40625 20.816406 4.617188 20.816406 Z M 9.546875 14.597656 L 22.992188 14.597656 L 22.992188 9.621094 C 22.992188 8 22.234375 6.519531 21.019531 5.453125 C 19.800781 4.382812 18.117188 3.71875 16.273438 3.71875 C 14.425781 3.71875 12.742188 4.382812 11.527344 5.449219 C 10.308594 6.519531 9.554688 7.996094 9.554688 9.617188 L 9.554688 14.3125 Z M 9.546875 14.597656 "/>
</g>
</svg>
