<svg xmlns="http://www.w3.org/2000/svg"  viewBox="0 0 48 48" width="24px" height="24px"><path d="M 24 4 C 19.599415 4 16 7.599415 16 12 L 16 16 L 12.5 16 C 10.019 16 8 18.019 8 20.5 L 8 39.5 C 8 41.981 10.019 44 12.5 44 L 35.5 44 C 37.981 44 40 41.981 40 39.5 L 40 20.5 C 40 18.019 37.981 16 35.5 16 L 32 16 L 32 12 C 32 7.599415 28.400585 4 24 4 z M 24 7 C 26.779415 7 29 9.220585 29 12 L 29 16 L 19 16 L 19 12 C 19 9.220585 21.220585 7 24 7 z M 24 27 C 25.657 27 27 28.343 27 30 C 27 31.657 25.657 33 24 33 C 22.343 33 21 31.657 21 30 C 21 28.343 22.343 27 24 27 z"/></svg>