<svg id="Layer_1" data-name="Layer 1" xmlns="http://www.w3.org/2000/svg" viewBox="0 0 193.91 107.22"><defs><style>.cls-1{fill:#fba919;}.cls-2{fill:#1e75bc;}</style></defs><path class="cls-1" d="M47.63,37a9.14,9.14,0,0,1,.2-1.93,3.77,3.77,0,0,1,.73-1.58,3.47,3.47,0,0,1,1.51-1.05A7.13,7.13,0,0,1,52.6,32h5.19a6.19,6.19,0,0,1,2.52.44,3.56,3.56,0,0,1,1.51,1.18,4.28,4.28,0,0,1,.74,1.7,10,10,0,0,1,.19,2v.41H57v-1.6a3,3,0,0,0-.16-1.1,1.66,1.66,0,0,0-.42-.64,1.27,1.27,0,0,0-.58-.29A3,3,0,0,0,55.2,34a4.27,4.27,0,0,0-.59.05,1.51,1.51,0,0,0-.61.27,1.45,1.45,0,0,0-.47.63,3,3,0,0,0-.18,1.15,2.13,2.13,0,0,0,.4,1.32,3.72,3.72,0,0,0,1.06.93,9.2,9.2,0,0,0,1.51.72l1.73.67c.59.23,1.16.48,1.72.75a7,7,0,0,1,1.49,1,4.11,4.11,0,0,1,1.06,1.38,4.55,4.55,0,0,1,.38,1.93,5.1,5.1,0,0,1-.26,1.68,3.58,3.58,0,0,1-.83,1.39,4,4,0,0,1-1.51.93,6.77,6.77,0,0,1-2.31.35H52.87V47.8l-2.93,1a3,3,0,0,1-.87-.48,3.33,3.33,0,0,1-.61-.64l3.86-1.3v-.64l-4.18,1.41a4.5,4.5,0,0,1-.4-1.29,8.58,8.58,0,0,1-.11-1.31V43.41h5.72v4.17c.63,0,1.17,0,1.63-.07a3.26,3.26,0,0,0,1.14-.32,1.59,1.59,0,0,0,.68-.78A3.48,3.48,0,0,0,57,45a1.58,1.58,0,0,0-.69-1.3,8.29,8.29,0,0,0-1.74-1c-.7-.3-1.45-.6-2.27-.9a12.37,12.37,0,0,1-2.26-1.07,6.43,6.43,0,0,1-1.74-1.53A3.64,3.64,0,0,1,47.63,37Z"/><path class="cls-1" d="M64.24,37.33a10,10,0,0,1,.19-2,4.27,4.27,0,0,1,.73-1.7,3.62,3.62,0,0,1,1.51-1.18A6.24,6.24,0,0,1,69.2,32h5.19a6.24,6.24,0,0,1,2.53.44,3.68,3.68,0,0,1,1.51,1.18,4.41,4.41,0,0,1,.73,1.7,10,10,0,0,1,.19,2v.41H73.64v-1.6a3.69,3.69,0,0,0-.16-1.2,1.51,1.51,0,0,0-.42-.63,1,1,0,0,0-.58-.24c-.22,0-.45,0-.67,0s-.46,0-.69,0a1,1,0,0,0-.59.24,1.51,1.51,0,0,0-.42.63,3.69,3.69,0,0,0-.16,1.2V47.58h1.19a7.73,7.73,0,0,0,1.46-.11,1.22,1.22,0,0,0,.74-.39,1.37,1.37,0,0,0,.26-.79c0-.33,0-.77,0-1.3V43.48h5.71v.39a10,10,0,0,1-.19,2,4.41,4.41,0,0,1-.73,1.7,3.68,3.68,0,0,1-1.51,1.18,6.24,6.24,0,0,1-2.53.44H69.47V47.8l-2.92,1a2.8,2.8,0,0,1-.87-.48,3.39,3.39,0,0,1-.62-.64l3.86-1.3v-.64l-4.18,1.41a4.5,4.5,0,0,1-.4-1.29,8.53,8.53,0,0,1-.1-1.31Z"/><path class="cls-1" d="M81,48l4.69-1.62v-.64L81,47.39V32h5.72V49.18h-.48V47.83L81,49.63Z"/><path class="cls-2" d="M105.65,37a9.14,9.14,0,0,1,.2-1.93,3.77,3.77,0,0,1,.73-1.58,3.47,3.47,0,0,1,1.51-1.05,7.07,7.07,0,0,1,2.52-.38h5.2a6.22,6.22,0,0,1,2.52.44,3.62,3.62,0,0,1,1.51,1.18,4.27,4.27,0,0,1,.73,1.7,10,10,0,0,1,.2,2v.41h-5.72v-1.6a3,3,0,0,0-.16-1.1,1.78,1.78,0,0,0-.42-.64,1.26,1.26,0,0,0-.59-.29,2.84,2.84,0,0,0-.66-.07,4.27,4.27,0,0,0-.59.05,1.45,1.45,0,0,0-.61.27,1.38,1.38,0,0,0-.47.63,3,3,0,0,0-.18,1.15,2.13,2.13,0,0,0,.4,1.32,3.72,3.72,0,0,0,1.06.93,8.82,8.82,0,0,0,1.51.72l1.73.67c.58.23,1.16.48,1.71.75a6.85,6.85,0,0,1,1.5,1,4.22,4.22,0,0,1,1,1.38,4.4,4.4,0,0,1,.39,1.93,5.38,5.38,0,0,1-.26,1.68,3.61,3.61,0,0,1-.84,1.39,4,4,0,0,1-1.51.93,6.66,6.66,0,0,1-2.3.35h-4.92V47.8l-2.93,1a3,3,0,0,1-.87-.48,3.73,3.73,0,0,1-.62-.64l3.87-1.3v-.64l-4.19,1.41a4.83,4.83,0,0,1-.4-1.29,10,10,0,0,1-.1-1.31V43.41h5.72v4.17c.62,0,1.16,0,1.62-.07a3.26,3.26,0,0,0,1.15-.32,1.59,1.59,0,0,0,.68-.78,3.65,3.65,0,0,0,.23-1.42,1.56,1.56,0,0,0-.7-1.3,7.81,7.81,0,0,0-1.74-1c-.69-.3-1.44-.6-2.26-.9a12.07,12.07,0,0,1-2.26-1.07,6.15,6.15,0,0,1-1.74-1.53A3.58,3.58,0,0,1,105.65,37Z"/><path class="cls-2" d="M122.37,47.55l4.69-1.62v-.64l-4.69,1.62V32h5.72v4.4l2.58-4.4h5.9l-4.34,6.22,4.34,10.94h-5.9l-2.08-7.07-.5.71v6.36h-.49V47.35l-5.23,1.8Z"/><path class="cls-2" d="M143.77,48l4.69-1.62v-.64l-4.69,1.62V42.5L137.26,32h6.12l3.37,6.06L150.09,32h6.12l-6.72,10.8v6.36H149V47.8l-5.24,1.81Z"/><path class="cls-2" d="M85.75,61.61c.7-2.47,1.8-5.58,4.54-6.36l0,.51-5.55.1c-1.91,0-3.81.07-5.72.07l-.12-.1c-.63-.54-2.7-2.26-3.3-2.78,5.82,0,13.7,0,19.6,0l.43.43c-1.72-.15-.48,0-.86,0,.08-1.33.21-3.36.33-4.71.49-4.56.53-9.76,1.81-14.14-.67,2.62-.62,6.69-.85,9.44s-.28,6.7-.42,9.34a.81.81,0,0,1,0,.16c-.38,0,.86.11-.87,0l.44.43L86.07,54C83,54,80,54,76.88,54l.3-.8,2.33,2-.28-.1c1.85,0,3.7,0,5.56.07l5.55.1,0,.51c-2.55.6-3.78,3.59-4.63,5.86Z"/><path class="cls-2" d="M108.17,61.61c-.86-2.27-2.08-5.26-4.64-5.86l0-.51,5.55-.1c1.85,0,3.7-.07,5.55-.07l-.28.1,2.34-2,.29.8c-3.06,0-6.12.06-9.18,0l-9.18-.06.43-.43c-1.72.15-.49,0-.87,0,0,0,0-.11,0-.16-.13-2.63-.28-6.68-.42-9.34s-.17-6.8-.84-9.44c1.28,4.38,1.32,9.58,1.81,14.14.12,1.35.25,3.37.33,4.71-.38.06.85-.1-.87,0l.44-.43c5.91-.06,13.75-.07,19.6,0L115,55.83l-.12.1c-1.9,0-3.81,0-5.71-.07l-5.55-.1,0-.51c2.75.78,3.85,3.89,4.55,6.36Z"/><path class="cls-2" d="M85,62c-12.55.47-25.11.71-37.66.86-4.16,1.17-11,2.68-15.76,4.47-.12,0-.31.17-.25.13l.08-.09a1,1,0,0,0,.13-.86,1,1,0,0,0-.42-.48c2.18.1,6.35.15,8.8.16,12.82,0,31.8.06,44.67.19h.47l.07.47c.74,6,6,10.28,11.83,11a14.53,14.53,0,0,1-8.3-3.06A13.19,13.19,0,0,1,84.07,67l.54.47c-14.79.5-29.89.76-44.71.74-2.7-.05-6.32,0-9-.24a1.58,1.58,0,0,1-.89-.36,1.07,1.07,0,0,1-.25-.38,1,1,0,0,1-.06-.49,1.08,1.08,0,0,1,.24-.56,5,5,0,0,1,2-1c5-1.62,10.12-2.75,15.23-4,12.61.07,25.25.38,37.86.83Z"/><path class="cls-2" d="M109,62c12.59-.45,25.19-.76,37.78-.83,5.1,1.21,10.22,2.34,15.22,4a5,5,0,0,1,2,1,1.11,1.11,0,0,1-1,1.79c-2.7.23-6.35.19-9.05.24-14.82,0-29.91-.24-44.7-.74l.53-.47a13.17,13.17,0,0,1-4.58,7.77A14.56,14.56,0,0,1,97,77.8c5.85-.68,11.07-5,11.83-11l.06-.47h.47c14.75-.16,34.46-.12,49.14-.23,1.42,0,3.19-.1,4.34-.12,0,0-.14.07-.21.16a.82.82,0,0,0-.21.32,1,1,0,0,0,.12.86l.08.09a1.41,1.41,0,0,0-.25-.13c-4.76-1.78-11.59-3.3-15.75-4.47-12.53-.15-25.06-.39-37.58-.86Z"/><path class="cls-2" d="M89.56,62.25c1.48-4.77,8.07-6.5,12-3.64a7.18,7.18,0,0,1,2.8,3.64,20.58,20.58,0,0,1-2.17-.41c-4.38-1.08-8.15-.57-12.62.41Z"/></svg>